<svg id="Lag_1" data-name="Lag 1" xmlns="http://www.w3.org/2000/svg" viewBox="0 0 144.5 144.5"><defs><style>.cls-1{fill:#559199;}.cls-2{fill:#fff;}</style></defs><title>Tegnebræt 17</title><rect class="cls-1" x="21.09" y="21.59" width="101.82" height="101.82" transform="translate(72.35 -29.68) rotate(45)"/><path class="cls-2" d="M73.91,57.12c-1.48,6,6.06,14.83,11,15.08-.48.37-.83.65-1.19.91a104,104,0,0,0-30,32.9c-.79,1.36-2,1.87-4.14,1.41a18.28,18.28,0,0,1-10.93-7.11,4.42,4.42,0,0,1-.19-5.53c8.76-14.26,19.64-26.55,33.34-36.25C72.47,58.06,73.15,57.63,73.91,57.12Z"/><path class="cls-2" d="M78.59,56.83c1.88-4.48,3.8-8.93,5.62-13.44.87-2.16,1.53-4.41,2.32-6.71l1.11.23.5-1.63,1.33.08L89.18,37h.38c.07.53.34,1.14.18,1.59-1.63,4.58-3.33,9.13-5,13.69a5.23,5.23,0,0,0-.47,1.84c1.2-1.32,2.44-2.61,3.6-4,2-2.28,3.87-4.61,5.83-6.89.44-.51.71-1.37,1.82-.93.27.11,1-.86,1.54-1.42l1,.48c-.05.23-.07.37-.11.5-.16.61-1.36,1-.36,1.89a3.37,3.37,0,0,1-.63,1Q92.1,50.41,87.25,56c-.33.37-.68.72-1,1.09l.26.35,14.78-8.69,2.32,2.64A144.26,144.26,0,0,1,79.33,64.52c.31,1.2,1,1.12,1.85.75a142.93,142.93,0,0,1,23.43-7.39c.65-.14,1.63-1,2,.45,0,.05.37.08.53,0,1-.35,1.27.2,1.36,1.13l-1.62.25.19.39a6.74,6.74,0,0,1-1.73,1.07,148,148,0,0,0-20.61,6.38c-.52.22-1,.46-1.64.74,1.8,1.53,3.18,1.18,4.35-1.18.44,1.73.44,2.87-.42,3.83a2.36,2.36,0,0,1-3,.44,21.63,21.63,0,0,1-4.34-2.93,16.74,16.74,0,0,1-4.92-8.09,8.4,8.4,0,0,1-.22-2.68,2.31,2.31,0,0,1,3.66-1.84c.18.11.19.52.27.8-1.54.71-1.67,1-1.12,2.81Z"/></svg>