<svg id="Lag_1" data-name="Lag 1" xmlns="http://www.w3.org/2000/svg" viewBox="0 0 144.5 144.5"><defs><style>.cls-1{fill:#559199;}.cls-2{fill:#fff;}</style></defs><title>Tegnebræt 16</title><rect class="cls-1" x="21.59" y="21.59" width="101.82" height="101.82" transform="translate(72.5 -30.03) rotate(45)"/><path class="cls-2" d="M83.76,59.37a26,26,0,0,0,6.31.43A3.24,3.24,0,0,1,93,61.34q9.77,13.58,19.61,27.12c.41.57,1.06,1.1.68,1.94s-1.3.79-2.09.79c-12.26,0-24.52,0-36.77,0a3.37,3.37,0,0,1-3-1.74c-5.22-7.2-10.52-14.34-15.71-21.57-1.07-1.5-1.56-1.39-2.53.08-4.72,7.19-9.52,14.32-14.32,21.46-.5.74-.88,2-2,1.6-1.55-.54-3.32-.73-4.49-2-.48-.54,0-1.12.33-1.59Q42.28,73.35,51.94,59.3a2.08,2.08,0,0,1,2-1q8.09.37,16.18.65c1.48.05,2.4.49,2.2,2.19-.11.94.1,1.64,1.31,1.28.34,0,.43-.18.41-.48,0-2.4.17-4.8.05-7.19-.1-2,.68-2.61,2.55-2.46a30,30,0,0,0,4.36,0c1.67-.11,2.19.7,2.17,2.21s.06,2.9.1,4.35C83.29,59.23,83.43,59.39,83.76,59.37Z"/></svg>