<svg id="Lag_1" data-name="Lag 1" xmlns="http://www.w3.org/2000/svg" viewBox="0 0 144.5 144.5"><defs><style>.cls-1{fill:#559199;}.cls-2{fill:#fff;}</style></defs><title>Tegnebræt 12</title><rect class="cls-1" x="21.59" y="21.59" width="101.82" height="101.82" transform="translate(72.5 -30.03) rotate(45)"/><path class="cls-2" d="M63.28,88.12l-.6.67c-4.4,5.15-8.76,10.33-13.2,15.44a7.66,7.66,0,0,1-7.26,2.64A5,5,0,0,1,38,101.26a8.66,8.66,0,0,1,3.13-6.15c5.05-4.27,10.07-8.57,15.1-12.87l.57-.5c-.2-.21-.37-.41-.56-.59l-9.67-9.68a4.09,4.09,0,0,1-1.19-4.31,5.17,5.17,0,0,1,1.16-1.89c1.29-1.39,2.68-2.68,4-4a.84.84,0,0,1,1.25-.16c1.2.87,2.43,1.7,3.55,2.66A263.3,263.3,0,0,1,76,83.9c2.33,2.5,4.51,5.14,6.73,7.74a8.7,8.7,0,0,1,1.09,1.73.83.83,0,0,1-.13.76c-1.46,1.51-2.92,3-4.45,4.45a4,4,0,0,1-5.76-.12q-4.85-4.82-9.68-9.67C63.66,88.6,63.51,88.39,63.28,88.12Z"/><path class="cls-2" d="M86.65,90.95a29.53,29.53,0,0,0-4.25-5.59,263.41,263.41,0,0,0-24.18-24c-1.4-1.21-2.95-2.25-4.36-3.32L74,37.93l32.84,32.84ZM74,40.73l-7.62,7.62A24.15,24.15,0,0,1,68.81,48a1,1,0,0,1,1.08,1.12,14.92,14.92,0,0,1-.3,1.74,20,20,0,0,0-.47,3c0,1.62.94,2.2,2.38,1.46a15,15,0,0,0,2.14-1.45,7.78,7.78,0,0,1,3.29-1.74c1.34-.24,2.06.43,1.9,1.8a7,7,0,0,1-1.62,3.64c-1.12,1.35-2.38,2.58-3.59,3.84-.79.82-1.63,1.6-2.39,2.44a1.49,1.49,0,0,0-.41,1.75,1.85,1.85,0,0,0,1.71,1.06,2.72,2.72,0,0,0,1.6-.58,12.64,12.64,0,0,0,1.69-2c.73-1,1.36-2.06,2.13-3a5.39,5.39,0,0,1,1.66-1.38,2.76,2.76,0,0,1,4.18,2.24,3.37,3.37,0,0,1-1.43,2.88A5.79,5.79,0,0,0,81,66.44a2,2,0,0,0,.43,2.4,1.93,1.93,0,0,0,2.29.34,10.57,10.57,0,0,0,1.71-1.1,22.48,22.48,0,0,1,2-1.5,4.52,4.52,0,0,1,1.81-.49,1.07,1.07,0,0,1,1.19,1.19A4.36,4.36,0,0,1,90,68.84a2.41,2.41,0,0,0,.45,3.06A6,6,0,0,0,94,73.6c1.62.25,2.07.63,2.22,2.29.09,1,0,2,0,2.91l7.92-7.92Z"/></svg>