<svg id="Lag_1" data-name="Lag 1" xmlns="http://www.w3.org/2000/svg" viewBox="0 0 144.5 144.5"><defs><style>.cls-1{fill:#559199;}.cls-2{fill:#fff;}</style></defs><title>Tegnebræt 13</title><rect class="cls-1" x="22.09" y="21.59" width="101.82" height="101.82" transform="translate(72.65 -30.38) rotate(45)"/><path class="cls-2" d="M36.86,76.87c3.07-2,6.11-4.14,9.24-6.08a6.74,6.74,0,0,1,3.16-1c3.2-.12,6.4,0,9.61,0,.47,0,.94,0,1.87-.1-1.6-1.57-3-2.79-4.2-4.15a3.45,3.45,0,0,1-.9-2.05q-.1-9.68,0-19.36a2,2,0,0,1,.8-1.53,13,13,0,0,1,13.29.15,2.05,2.05,0,0,1,1.17,2c0,6.2,0,12.41-.06,18.61a3.41,3.41,0,0,1-.89,2.05c-1.27,1.38-2.68,2.63-4,3.93l.2.39H84v3.87l3.58.17v3.57H84V81H82.27C76.12,81,70,81,63.81,81c-1.19,0-1.64.35-1.84,1.53-.39,2.26-1,4.49-1.51,6.83H57.94L59.6,81a28.61,28.61,0,0,0-3.72.06c-.39.05-.84.72-1,1.2C53,88.11,51.22,94,49.47,99.87c-.35,1.17-.78,1.67-2.11,1.63-3.5-.11-7,0-10.51,0v-.6a10.71,10.71,0,0,0,.64-1.27q2.26-6.47,4.48-13c.63-1.82,1.24-3.64,1.9-5.58h-7ZM66.7,64.68a11.77,11.77,0,0,0-7,.06l3.16,3.52Z"/><path class="cls-2" d="M111.93,76c-1.12.12-2.23.31-3.35.33-.27,0-.7-.51-.77-.85s.44-.8.66-.79c1.15.06,2.3.26,3.45.4Z"/><path class="cls-2" d="M92.87,69.71,90,72c-.22-.44-.75-1.1-.62-1.29a8.33,8.33,0,0,1,2-2c.27-.18.92.2,1.39.32Z"/><path class="cls-2" d="M101.44,61.11c-.48-.27-.84-.35-.94-.56a1.08,1.08,0,0,1,0-.94,16.58,16.58,0,0,1,2-2,1.06,1.06,0,0,1,.93.08c.2.11.41.63.33.73C103,59.36,102.22,60.22,101.44,61.11Z"/><path class="cls-2" d="M90.3,79.35a13.48,13.48,0,0,1,2.24,2.89c.26.6-.7,1-1.36.54A7.2,7.2,0,0,1,89.42,81c-.2-.32.11-1,.19-1.46Z"/><path class="cls-2" d="M109.49,53.08l-2.72,2.29c-.27-.41-.86-1.06-.76-1.19a10.08,10.08,0,0,1,2-2.09c.23-.17.87.23,1.33.37Z"/><path class="cls-2" d="M95.58,67.08c-.41-.88-.87-1.5-.75-1.65a19,19,0,0,1,2.37-2.31,4.46,4.46,0,0,1,.89.76C97.41,64.83,96.66,65.75,95.58,67.08Z"/><path class="cls-2" d="M98.22,88.12c-.49.08-1.13.39-1.45.19A7,7,0,0,1,95,86.55a1.19,1.19,0,0,1,.07-1.16,1.16,1.16,0,0,1,1.14,0,29,29,0,0,1,2.13,2.16Z"/><path class="cls-2" d="M102,76.37a2.18,2.18,0,0,1-.88,0,8.32,8.32,0,0,1-1.17-.83,4.83,4.83,0,0,1,1.25-.91,2.76,2.76,0,0,1,1.61,0,5,5,0,0,1,1.27.92,8.69,8.69,0,0,1-1.2.83A2.22,2.22,0,0,1,102,76.37Z"/><path class="cls-2" d="M94.12,76.37a2.31,2.31,0,0,1-.88,0,9,9,0,0,1-1.22-.8,4.68,4.68,0,0,1,1.22-.95,2.78,2.78,0,0,1,1.61,0,5.25,5.25,0,0,1,1.3.89,13.86,13.86,0,0,1-1.31.87C94.66,76.46,94.36,76.37,94.12,76.37Z"/><path class="cls-2" d="M103.95,93c-.27.46-.37.86-.57.92a1.37,1.37,0,0,1-1.08-.05,12.08,12.08,0,0,1-1.78-1.79,1,1,0,0,1-.07-.93c.13-.23.7-.49.82-.4C102.19,91.43,103,92.21,103.95,93Z"/><path class="cls-2" d="M106.72,95.78A11.7,11.7,0,0,1,108,97.58c.07.14-.48.57-.75.86a9.12,9.12,0,0,1-1.31-1.38C105.85,96.92,106.32,96.42,106.72,95.78Z"/></svg>