<svg id="Lag_1" data-name="Lag 1" xmlns="http://www.w3.org/2000/svg" viewBox="0 0 144.5 144.5"><defs><style>.cls-1{fill:#559199;}.cls-2{fill:#fff;}</style></defs><title>Tegnebræt 1</title><rect class="cls-1" x="21.59" y="21.59" width="101.82" height="101.82" transform="translate(72.5 -30.03) rotate(45)"/><path class="cls-2" d="M73.05,108.34c-7.4,0-13.32-2.44-17.64-8.11a13.64,13.64,0,0,1-2.7-11.52,6.44,6.44,0,0,1,.55-1.55,3.3,3.3,0,0,1,3-2A3.37,3.37,0,0,1,59.45,87a39.82,39.82,0,0,0,3.69,5.84A10.13,10.13,0,0,0,77.42,94a7.08,7.08,0,0,0,2.67-6.61,16.76,16.76,0,0,0-1.87-6.41c-2.66-4.43-5.67-8.66-8.68-12.87-2.65-3.7-5.33-7.34-5.65-12.09-.25-3.6,1.51-6.21,4.51-6.7A6.38,6.38,0,0,1,73.89,51a20.66,20.66,0,0,1,2.35,2.55,119.09,119.09,0,0,1,14.21,23,25.53,25.53,0,0,1,2.11,16.26C90.8,101.39,81.9,108.75,73.05,108.34ZM70.63,53a3.52,3.52,0,0,0-.09,7,3.52,3.52,0,1,0,.09-7Z"/><path class="cls-2" d="M62.42,58.71a39.2,39.2,0,0,0,6,10.35,1.8,1.8,0,0,1,.07,1.66c-2.26,3.4-4.47,6.83-7,10a10.06,10.06,0,0,1-4.18,3c-2.4.91-3.82-.5-3.2-3A49.65,49.65,0,0,1,56,75C58.14,69.55,60.29,64.14,62.42,58.71Z"/><path class="cls-2" d="M71.51,38.84H75.1c.17-.66.14-1.39.5-1.77a4.86,4.86,0,0,1,2.1-1.44A1.74,1.74,0,0,1,80,36.91c.63,4.14,1,8.32-.31,12.39a15.25,15.25,0,0,1-2.11,3.23c-2.84-3.61-6-6-11-4a6.71,6.71,0,0,1-1-2.09c-.2-2.58-.33-5.17-.27-7.75.05-2.39,2.08-3.87,3.82-2.8C70.11,36.38,70.58,37.57,71.51,38.84Zm-.59,3.27c-.14,1.51-.2,2.95,1.18,3.62a3,3,0,0,0,2.56-.16c1.18-.77,1.11-2.11.8-3.46Z"/></svg>