<svg id="Lag_1" data-name="Lag 1" xmlns="http://www.w3.org/2000/svg" viewBox="0 0 144.5 144.5"><defs><style>.cls-1{fill:#559199;}.cls-2{fill:#fff;}</style></defs><title>Tegnebræt 15</title><rect class="cls-1" x="22.09" y="21.59" width="101.82" height="101.82" transform="translate(72.65 -30.38) rotate(45)"/><path class="cls-2" d="M83.06,108.09,67,98.34l4-7,16.21,9.19-3.48,7.6Z"/><path class="cls-2" d="M103.43,81.41c-.77,1.14-1.57,2.26-2.32,3.42s-1.45,2.31-2.25,3.59l-4.12-2.27c.46-1.33.89-2.6,1.35-3.85s1-2.58,1.54-4l5.8,2.4Z"/><path class="cls-2" d="M72.71,72.55,61,70.7A4.28,4.28,0,0,0,56,73.28C54,77.19,51.55,80.9,49.12,85L42.6,81.31l26-44.68c6.84,3.3,6.84,3.3,3.27,9.4-4.95,8.46-4.95,8.46.91,16.28C75.09,65.34,75.09,65.34,72.71,72.55Z"/><path class="cls-2" d="M86.09,96.83c-4.23-2.41-7.77-4.4-11.28-6.43-.48-.28-1.13-.69-1.21-1.14C72.77,85,72,80.72,71.28,76.39c3.74.34,3.74.33,4.33-3.17.08-.46.28-.89.36-1.35,1.49-8.95,4.58-6.79,9.92-4.09,2.23,1.13,4,3.15,6.2,4.38,3.16,1.76,3.44,4.59,2.34,7.21C92,85.21,89,90.83,86.09,96.83Z"/></svg>