<svg id="Lag_1" data-name="Lag 1" xmlns="http://www.w3.org/2000/svg" viewBox="0 0 144.5 144.5"><defs><style>.cls-1{fill:#559199;}.cls-2{fill:#fff;}</style></defs><title>Tegnebræt 11</title><rect class="cls-1" x="21.09" y="21.59" width="101.82" height="101.82" transform="translate(72.35 -29.68) rotate(45)"/><path class="cls-2" d="M62.89,84.48l-9-9L83.63,45.81l.43.43q4.06,4.06,8.12,8.11c.32.32.36.5,0,.84Q86,61.39,79.75,67.62l-9.92,9.92L63.34,84ZM84.83,51.13,61.08,74.87c.66.66,1.31,1.26,1.9,1.92.37.41.59.37,1,0Q75.3,65.39,86.68,54c.1-.1.24-.19.29-.31s.07-.36,0-.43C86.29,52.57,85.58,51.88,84.83,51.13Z"/><path class="cls-2" d="M68.75,117.15c-7.35-10.53-15-20.87-24.37-29.77l5.44-5.44,1.8,1.8c2.09,2.11,4.29,4.13,6.25,6.36,1.73,2,3.21,4.17,4.77,6.3a122.21,122.21,0,0,1,7.77,12.21c.79,1.4,1.55,2.82,2.3,4.24a.55.55,0,0,1,0,.5c-1.26,1.27-2.53,2.53-3.81,3.78Z"/><path class="cls-2" d="M91.8,51.34a2.1,2.1,0,0,1-.35-.23L86.34,46c-.06-.06-.11-.13-.18-.22l2.67-2.67a6.68,6.68,0,0,0,.73.7.58.58,0,0,0,.52.06C92.53,42.25,95,40.6,97.43,39l.55-.35,1.81,1.81L97.5,43.83c-1,1.45-1.93,2.92-2.93,4.35-.25.36-.16.55.11.79s.35.34.63.62l-2,1.75Z"/><path class="cls-2" d="M79.13,96.35c-1.07,1.07-2.12,2.13-3.2,3.18a.64.64,0,0,1-.49.09q-4.23-.76-8.46-1.55a.88.88,0,0,1-.5-.33c-1.42-2-2.83-4-4.2-5.9Z"/><path class="cls-2" d="M45,90.88l2,2L45.79,94,44,95.78c-.64.64-.74,1.25-.3,1.77s1.1.56,1.83,0a1.4,1.4,0,0,1,1.93,2,4,4,0,0,1-6.55-4.27A5.07,5.07,0,0,1,41.84,94c1-1,2-2,3-3A.83.83,0,0,1,45,90.88Z"/><path class="cls-2" d="M52.29,77.1l9,9-2,2A2.55,2.55,0,0,1,59,87.8l-5.27-5.26c-1.08-1.08-2.16-2.16-3.23-3.26a.44.44,0,0,1,0-.42C51.11,78.27,51.69,77.71,52.29,77.1Z"/><path class="cls-2" d="M91.8,51.34h1.53l-.72,1Z"/></svg>