<svg id="Lag_1" data-name="Lag 1" xmlns="http://www.w3.org/2000/svg" viewBox="0 0 144.5 144.5"><defs><style>.cls-1{fill:#559199;}.cls-2{fill:#fff;}</style></defs><title>Tegnebræt 18</title><rect class="cls-1" x="20.59" y="21.59" width="101.82" height="101.82" transform="translate(72.21 -29.32) rotate(45)"/><path class="cls-2" d="M37,65.45V65a4.79,4.79,0,0,0,.94-.56Q52.59,50.29,67.21,36.13A5.58,5.58,0,0,0,67.92,35h.47l-1.87,8.5,4.21,1.63L66.89,53.4c3.55,1.5,3.28,4.12,2.57,7.06a69.59,69.59,0,0,0-1.25,7.85c-.08.66.08,1.71.52,2,1.83,1.22,2,2.88,1.94,4.86-.15,3.58-.11,7.17-.14,10.76,0,.86,0,1.73,0,2.59l-.55,0-.36-6.11L59.24,83l.43,7.71,10.52-.57.3,1.62c1.19-6.17,2.1-12.33,3-18.5A1.56,1.56,0,0,0,73.08,72c-2.33-1.68-1.48-3.73-.81-5.81.76-2.37,1.37-4.8,2.23-7.14.63-1.72.65-3.16-.89-4.36-1.29-1-1-2-.14-3.17,1.3-1.81,2.45-3.74,3.73-5.73l-4.07-2.25,3.32-8L105.92,66l-6.27-.31-2.83,39.2c-16.64-1.56-33.1-2.85-49.78-.55L44.62,64.87ZM73.9,90.54l10.42.68.51-7.7-10.36-.71ZM69.46,79.39,69,71.69l-10.44.63L59.12,80Zm15.61,1.15.52-7.69-10.45-.73-.42,7.72Z"/></svg>