<svg id="Lag_1" data-name="Lag 1" xmlns="http://www.w3.org/2000/svg" viewBox="0 0 144.5 144.5"><defs><style>.cls-1{fill:#559199;}.cls-2{fill:#fff;}</style></defs><title>Tegnebræt 19</title><rect class="cls-1" x="21.09" y="21.59" width="101.82" height="101.82" transform="translate(72.35 -29.68) rotate(45)"/><path class="cls-2" d="M37,69c.4-.07.48-.48.75-.69a4,4,0,0,1,2.71-.65c.34,0,.39.26.39.52,0,.57,0,1.15,0,1.72s.21.75.71.75l.75,0q8.42,0,16.85,0c1.18,0,1.2-.06,1.2-1.25,0-.15,0-.3,0-.45,0-1.42.07-1.48,1.49-1.29A2.2,2.2,0,0,1,64,70.12c0,2.65,0,5.29,0,7.94,0,.86,0,.86.84.51a16.67,16.67,0,0,1,5-1.34A1.08,1.08,0,0,1,71,78c1.88,3.77,3.82,7.51,6.06,11.08.34.55.74,1.06,1.14,1.58.13.17.26.46.51.36s.17-.39.19-.6c.15-1.57,0-3.14,0-4.71a5.14,5.14,0,0,0-1.28-3.46c-.29-.35-.73-.88-.5-1.25s.8.06,1.22.13a11,11,0,0,0,5.33,0c.49-.16.51.14.42.48a5.16,5.16,0,0,1-1.06,2,2.2,2.2,0,0,0-.54,1.5,50.89,50.89,0,0,0,.15,5.31c0,.22,0,.51.2.6s.42-.22.55-.4q2.76-3.73,5.24-7.65a32.76,32.76,0,0,0,3-5.28c.17-.43.52-.42.87-.38A18,18,0,0,1,104.25,84a16,16,0,0,1,2.93,7.2,2.12,2.12,0,0,0,.28,1v4.5a1.22,1.22,0,0,0-.31.67,5.87,5.87,0,0,1-3.78,4.66,21.47,21.47,0,0,1-8.71,1.56c-10.36,0-20.73,0-31.09,0a1.66,1.66,0,0,0-1.36.45H39a3.32,3.32,0,0,1-1.95-1.8Zm1.78,18q0,6.89,0,13.78c0,1,0,1,1,1H61.33c1,0,1,0,1-1q0-13.81,0-27.63c0-1,0-1.06-1-1.06H39.82c-1,0-1,0-1,1Q38.81,80.1,38.82,87Zm55.77,5.39c-.75,0-1.35,0-1.95,0a3.92,3.92,0,0,0-2.07.53,3.7,3.7,0,0,0-1.79,3.39,3.65,3.65,0,0,0,2.46,3.1,15,15,0,0,0,5.72.13,3.38,3.38,0,0,0,3-3.36,3.57,3.57,0,0,0-2.79-3.68A12.46,12.46,0,0,0,94.59,92.42Z"/><path class="cls-2" d="M83.19,40.7c-.18,1.66-.18,1.68,1.49,1.66.67,0,1.22,0,1.1.92-.05.38.31.47.57.6a16.42,16.42,0,0,1,6.17,5.31,11.67,11.67,0,0,1,2.1,5.38,1,1,0,0,0,.78,1,21.64,21.64,0,0,1,2.42,1c1,.45,1.07,1.14.25,1.84a5,5,0,0,1-2.53,1c-1.08.18-1,.19-1.13,1.25C94,65.11,93.21,69.45,91,73.38a11.86,11.86,0,0,1-5.23,5.06,10.71,10.71,0,0,1-11.21-1.62c-3-2.71-4.57-6.23-5.69-10a32.5,32.5,0,0,1-1.25-6.22.71.71,0,0,0-.59-.66,10.51,10.51,0,0,1-2.15-.86c-1.25-.76-1.25-1.84,0-2.63a8.12,8.12,0,0,1,1.91-.85,1.4,1.4,0,0,0,1-1,24.8,24.8,0,0,1,3.9-7.87,8.53,8.53,0,0,1,3.47-2.77c.35-.14.64-.31.61-.74s.22-.56.6-.55h.15c1.87-.06,1.87-.06,1.77-1.94Zm-2,36.47a9.67,9.67,0,0,0,2.34-.26,10.16,10.16,0,0,0,5.71-4.78,25.88,25.88,0,0,0,3.17-9.44c.07-.44.42-1.05,0-1.3s-.58.49-.89.76c-.15.13-.28.34-.5.23s-.15-.35-.16-.54c0-.47,0-.95,0-1.42s-.23-.83-.84-.82c-1.52,0-3,0-4.57,0-4.42,0-8.83,0-13.25,0-.68,0-1,.2-.91.9s0,1.5,0,2.25c0,.45,0,.79-.61.39-.15-.11-.35-.28-.54-.16s-.12.41-.08.62a24.27,24.27,0,0,0,3.41,9C75.33,75.31,77.69,77.21,81.21,77.16Z"/><path class="cls-2" d="M50.59,69.85c-2.32,0-4.64,0-7,0-1.94,0-1.94,0-1.94-1.95,0-.42,0-.85,0-1.27,0-1,0-1,1-1.08,1.57-.13,3.14-.08,4.71-.07.57,0,.89-.1,1-.77a2.06,2.06,0,0,1,2.26-1.84,2.1,2.1,0,0,1,2.11,2c.06.51.32.59.75.6,1.67,0,3.34,0,5,.06.75,0,1,.33,1,1.06s0,1.6,0,2.39a.63.63,0,0,1-.59.72,8.6,8.6,0,0,1-1.49.15Zm1-4.94a1,1,0,0,0-1.07-1,1,1,0,0,0-1,1.06,1.09,1.09,0,0,0,1.08,1A1.1,1.1,0,0,0,51.59,64.92Z"/><path class="cls-2" d="M42.91,94.07a.75.75,0,0,1,.59.35c.45.65.83.51,1.29,0,.67-.77,1.41-1.48,2.11-2.23.27-.29.55-.53.85-.12s1,.66.4,1.27c-1.33,1.28-2.7,2.51-4.05,3.77-.33.3-.59.18-.83-.1-.45-.54-.88-1.08-1.32-1.62-.13-.16-.26-.36-.08-.53A2.6,2.6,0,0,1,42.91,94.07Z"/><path class="cls-2" d="M43.68,79.75a4.62,4.62,0,0,1-.39-.37c-.43-.51-.85-1-1.29-1.55s-.2-.66.17-.9.66-.78,1.2-.26c.76.73.76.73,1.45,0s1.41-1.41,2.09-2.13c.32-.34.58-.46.9,0s.89.65.3,1.22Q46.79,77,45.45,78.23c-.47.44-1,.87-1.44,1.31A2.88,2.88,0,0,1,43.68,79.75Z"/><path class="cls-2" d="M43,82.1a1.1,1.1,0,0,1,.62.54c.32.45.62.47,1,0,.75-.83,1.55-1.62,2.3-2.45.35-.39.64-.4,1,0s.8.64.24,1.16L44,85.24c-.26.24-.5.16-.7-.09l-1.4-1.75c-.16-.2-.2-.42,0-.59A3.53,3.53,0,0,1,43,82.1Z"/><path class="cls-2" d="M48.37,86.84a.8.8,0,0,1-.35.62c-1.3,1.21-2.6,2.41-3.89,3.62-.39.36-.67.2-.94-.13-.39-.48-.76-1-1.18-1.45s-.19-.66.14-.92.66-.76,1.2-.27c.78.71.8.71,1.54,0s1.28-1.33,1.94-2c.2-.2.38-.57.73-.34A2.41,2.41,0,0,1,48.37,86.84Z"/></svg>